<?xml version="1.0" encoding="UTF-8" standalone="no"?>
<!-- Created with Inkscape (http://www.inkscape.org/) -->

<svg
   version="1.1"
   id="svg1"
   width="1550.6757"
   height="406.34039"
   viewBox="0 0 1550.6756 406.34039"
   sodipodi:docname="lazada.svg"
   inkscape:version="1.3.2 (1:1.3.2+202311252150+091e20ef0f)"
   xmlns:inkscape="http://www.inkscape.org/namespaces/inkscape"
   xmlns:sodipodi="http://sodipodi.sourceforge.net/DTD/sodipodi-0.dtd"
   xmlns="http://www.w3.org/2000/svg"
   xmlns:svg="http://www.w3.org/2000/svg">
  <sodipodi:namedview
     id="namedview1"
     pagecolor="#ffffff"
     bordercolor="#000000"
     borderopacity="0.25"
     inkscape:showpageshadow="2"
     inkscape:pageopacity="0.0"
     inkscape:pagecheckerboard="0"
     inkscape:deskcolor="#d1d1d1"
     inkscape:zoom="0.48752942"
     inkscape:cx="775.33783"
     inkscape:cy="204.09025"
     inkscape:window-width="1366"
     inkscape:window-height="738"
     inkscape:window-x="0"
     inkscape:window-y="30"
     inkscape:window-maximized="1"
     inkscape:current-layer="svg1" />
  <defs
     id="defs1">
    <clipPath
       clipPathUnits="userSpaceOnUse"
       id="clipPath3">
      <path
         d="M 0,841.89 H 1190.551 V 0 H 0 Z"
         transform="translate(-626.32232,-470.29201)"
         id="path3" />
    </clipPath>
    <clipPath
       clipPathUnits="userSpaceOnUse"
       id="clipPath5">
      <path
         d="M 0,841.89 H 1190.551 V 0 H 0 Z"
         transform="translate(-701.32812,-398.09471)"
         id="path5" />
    </clipPath>
    <clipPath
       clipPathUnits="userSpaceOnUse"
       id="clipPath7">
      <path
         d="M 0,841.89 H 1190.551 V 0 H 0 Z"
         transform="translate(-859.94042,-470.29201)"
         id="path7" />
    </clipPath>
    <clipPath
       clipPathUnits="userSpaceOnUse"
       id="clipPath9">
      <path
         d="M 0,841.89 H 1190.551 V 0 H 0 Z"
         transform="translate(-990.50005,-470.29201)"
         id="path9" />
    </clipPath>
    <clipPath
       clipPathUnits="userSpaceOnUse"
       id="clipPath11">
      <path
         d="M 0,841.89 H 1190.551 V 0 H 0 Z"
         transform="translate(-1121.0079,-470.29201)"
         id="path11" />
    </clipPath>
    <linearGradient
       x1="0"
       y1="0"
       x2="1"
       y2="0"
       gradientUnits="userSpaceOnUse"
       gradientTransform="matrix(495.76988,-3.8400092,-3.8400092,-495.76988,1.3689842,204.55565)"
       spreadMethod="pad"
       id="linearGradient17">
      <stop
         style="stop-opacity:1;stop-color:#ffb900"
         offset="0"
         id="stop11" />
      <stop
         style="stop-opacity:1;stop-color:#ffb900"
         offset="0.0000001"
         id="stop12" />
      <stop
         style="stop-opacity:1;stop-color:#f38000"
         offset="0.337553"
         id="stop13" />
      <stop
         style="stop-opacity:1;stop-color:#f83c72"
         offset="0.56729"
         id="stop14" />
      <stop
         style="stop-opacity:1;stop-color:#fc1cbe"
         offset="0.78"
         id="stop15" />
      <stop
         style="stop-opacity:1;stop-color:#fe08ed"
         offset="0.93"
         id="stop16" />
      <stop
         style="stop-opacity:1;stop-color:#ff00ff"
         offset="1"
         id="stop17" />
    </linearGradient>
    <mask
       maskUnits="userSpaceOnUse"
       x="0"
       y="0"
       width="1"
       height="1"
       id="mask17">
      <path
         id="path19"
         d="M -32768,32767 H 32767 V -32768 H -32768 Z"
         style="fill:url(#linearGradient19);stroke:none" />
    </mask>
    <linearGradient
       x1="0"
       y1="0"
       x2="1"
       y2="0"
       gradientUnits="userSpaceOnUse"
       gradientTransform="matrix(379.09555,209.90192,-209.90192,379.09555,119.29492,298.19922)"
       spreadMethod="pad"
       id="linearGradient19">
      <stop
         style="stop-opacity:1;stop-color:#ffffff"
         offset="0"
         id="stop18" />
      <stop
         style="stop-opacity:0;stop-color:#ffffff"
         offset="1"
         id="stop19" />
    </linearGradient>
    <linearGradient
       x1="0"
       y1="0"
       x2="1"
       y2="0"
       gradientUnits="userSpaceOnUse"
       gradientTransform="matrix(379.09555,209.90192,-209.90192,379.09555,119.29492,298.19922)"
       spreadMethod="pad"
       id="linearGradient21">
      <stop
         style="stop-opacity:1;stop-color:#ee0a3f"
         offset="0"
         id="stop20" />
      <stop
         style="stop-opacity:1;stop-color:#ee0a3f"
         offset="1"
         id="stop21" />
    </linearGradient>
    <clipPath
       clipPathUnits="userSpaceOnUse"
       id="clipPath22">
      <path
         d="m 200.776,420.718 v -152.15 h 0.76 c 2.665,-0.017 5.288,0.664 7.607,1.979 v 0 c 19.855,11.487 166.83,103.689 172.384,106.504 v 0 c 4.246,1.948 7.142,6.002 7.607,10.65 v 0 129.326 c 0.025,2.19 -0.47,4.354 -1.445,6.314 v 0 z"
         transform="matrix(1.3333333,0,0,-1.3333333,0,1122.52)"
         id="path22" />
    </clipPath>
    <linearGradient
       x1="0"
       y1="0"
       x2="1"
       y2="0"
       gradientUnits="userSpaceOnUse"
       gradientTransform="matrix(-244.25386,-196.76005,196.76005,-244.25386,193.70752,284.25877)"
       spreadMethod="pad"
       id="linearGradient23">
      <stop
         style="stop-opacity:1;stop-color:#ed6600"
         offset="0"
         id="stop22" />
      <stop
         style="stop-opacity:1;stop-color:#f98200"
         offset="1"
         id="stop23" />
    </linearGradient>
  </defs>
  <path
     id="path1"
     d="m 633.75961,56.83824 h 35.124 V 225.8489 h 60.54933 v 33.36 h -95.528 z"
     style="fill:#ffffff;fill-opacity:1;fill-rule:nonzero;stroke:none;stroke-width:1.33333" />
  <path
     id="path2"
     d="m 0,0 c -19.896,0 -33.071,-15.652 -33.071,-35.713 0,-20.061 13.392,-35.767 33.071,-35.767 19.675,0 33.066,15.651 33.066,35.767 C 33.066,-15.597 19.893,0 0,0 M -4.467,22.375 C 9.49,22.55 22.721,16.187 31.304,5.181 V 20.115 H 55.881 V -91.597 H 31.304 v 14.936 C 22.721,-87.669 9.49,-94.031 -4.467,-93.856 c -30.641,0 -53.899,26.178 -53.899,58.143 0,31.965 23.258,58.088 53.899,58.088"
     style="fill:#ffffff;fill-opacity:1;fill-rule:nonzero;stroke:none"
     transform="matrix(1.3333333,0,0,-1.3333333,816.73361,137.37464)"
     clip-path="url(#clipPath3)" />
  <path
     id="path4"
     d="M 0,0 58.584,69.992 H 0.88 V 92.313 H 90.328 V 72.638 L 31.966,2.921 h 59.685 v -22.32 H 0 Z"
     style="fill:#ffffff;fill-opacity:1;fill-rule:nonzero;stroke:none"
     transform="matrix(1.3333333,0,0,-1.3333333,916.74134,233.63771)"
     clip-path="url(#clipPath5)" />
  <path
     id="path6"
     d="m 0,0 c -19.897,0 -33.067,-15.652 -33.067,-35.713 0,-20.061 13.392,-35.767 33.067,-35.767 19.674,0 33.066,15.651 33.066,35.767 C 33.066,-15.597 19.896,0 0,0 M -4.463,22.375 C 9.49,22.55 22.725,16.187 31.303,5.181 V 20.115 H 55.884 V -91.597 H 31.303 v 14.936 C 22.725,-87.669 9.49,-94.031 -4.463,-93.856 c -30.641,0 -53.847,26.178 -53.847,58.143 0,31.965 23.206,58.088 53.847,58.088"
     style="fill:#ffffff;fill-opacity:1;fill-rule:nonzero;stroke:none"
     transform="matrix(1.3333333,0,0,-1.3333333,1128.2244,137.37464)"
     clip-path="url(#clipPath7)" />
  <path
     id="path8"
     d="m 0,0 c -19.896,0 -33.066,-15.652 -33.066,-35.713 0,-20.061 13.448,-35.767 33.066,-35.767 19.622,0 33.067,15.651 33.067,35.767 C 33.067,-15.597 19.896,0 0,0 M -4.463,22.375 C 9.479,22.559 22.697,16.192 31.251,5.181 V 69.386 H 55.828 V -91.597 H 31.251 v 14.936 C 22.697,-87.674 9.479,-94.039 -4.463,-93.856 c -30.641,0 -53.899,26.178 -53.899,58.143 0,31.965 23.258,58.088 53.899,58.088"
     style="fill:#ffffff;fill-opacity:1;fill-rule:nonzero;stroke:none"
     transform="matrix(1.3333333,0,0,-1.3333333,1302.3039,137.37464)"
     clip-path="url(#clipPath9)" />
  <path
     id="path10"
     d="m 0,0 c -19.896,0 -33.07,-15.652 -33.07,-35.713 0,-20.061 13.448,-35.767 33.07,-35.767 19.618,0 33.066,15.651 33.066,35.767 C 33.066,-15.597 19.893,0 0,0 M -4.467,22.375 C 9.475,22.559 22.697,16.192 31.247,5.181 V 20.115 H 55.771 V -91.597 H 31.139 v 14.936 C 22.584,-87.674 9.365,-94.039 -4.575,-93.856 c -30.642,0 -53.9,26.178 -53.9,58.143 0,31.965 23.367,58.088 54.008,58.088"
     style="fill:#ffffff;fill-opacity:1;fill-rule:nonzero;stroke:none"
     transform="matrix(1.3333333,0,0,-1.3333333,1476.3143,137.37464)"
     clip-path="url(#clipPath11)" />
  <path
     id="path17"
     d="M 102.46254,2.1306591 C 92.421211,7.7106589 28.923879,46.455991 9.9572133,58.223991 v 0 L 8.53588,59.034658 c -5.3813332,3.533333 -8.56266646,9.590666 -8.41733313,16.026666 v 0 172.434666 c 0.66133332,6.184 4.50799993,11.57066 10.14400013,14.2 v 0 c 7.403999,3.75333 203.473323,126.68933 229.943993,142.00533 v 0 c 3.09333,1.75333 6.592,2.66133 10.14533,2.63733 v 0 0.001 c 3.57067,-0.0387 7.07067,-1.01733 10.14267,-2.84133 v 0 c 26.98,-15.012 222.43999,-137.948 229.84533,-142.00533 v 0 c 5.66133,-2.59733 9.52266,-8.00133 10.144,-14.2 v 0 -172.435996 c 0.0653,-6.464 -3.28934,-12.482666 -8.82667,-15.822666 v 0 C 488.31187,56.905324 409.59854,8.7253256 398.0372,2.3346591 v 0 c -2.29733,-1.38266668 -4.92666,-2.11733333 -7.608,-2.12933333 v 0 c -2.50133,-0.0346667 -4.96,0.63333332 -7.1,1.92533333 v 0 c -0.91333,0 -85.81066,53.8613319 -99.09999,60.8599989 v 0 c -10.44,5.698666 -22.18934,8.566666 -34.08,8.317333 v 0 c -10.49334,0.174666 -20.89334,-2.008 -30.42934,-6.390667 v 0 C 206.12654,59.745324 117.27321,1.8266591 117.27321,1.8266591 v 0 C 115.05054,0.65599243 112.58254,0.02932578 110.07054,-7.5559e-6 v 0 C 107.39188,0.02932578 104.76788,0.76399242 102.46254,2.1306591"
     style="fill:url(#linearGradient17);stroke:none;stroke-width:1.33333" />
  <g
     mask="url(#mask17)"
     id="g21"
     clip-path="url(#clipPath22)"
     transform="translate(-18.362786,-358.08936)">
    <path
       d="m 200.776,420.718 v -152.15 h 0.76 c 2.665,-0.017 5.288,0.664 7.607,1.979 v 0 c 19.855,11.487 166.83,103.689 172.384,106.504 v 0 c 4.246,1.948 7.142,6.002 7.607,10.65 v 0 129.326 c 0.025,2.19 -0.47,4.354 -1.445,6.314 v 0 z"
       transform="matrix(1.3333333,0,0,-1.3333333,0,1122.52)"
       style="fill:url(#linearGradient21);stroke:none"
       id="path21" />
  </g>
  <path
     id="path23"
     d="M 0.00121354,76.158657 V 246.75732 c 0.61466665,6.132 4.43199986,11.47867 10.03466646,14.04933 v 0 c 7.325333,3.712 201.20399,125.33733 227.39599,140.49067 v 0 c 3.05867,1.73466 6.52,2.63466 10.03467,2.61066 v 0 h 1.004 V 203.20399 L 1.9065468,67.829324 c -1.28533327,2.588 -1.93866659,5.441333 -1.90533326,8.329333"
     style="fill:url(#linearGradient23);stroke:none;stroke-width:1.33333" />
</svg>
