<?xml version="1.0" encoding="UTF-8" standalone="no"?>
<!-- Created with Inkscape (http://www.inkscape.org/) -->

<svg
   version="1.1"
   id="svg1"
   width="546.5213"
   height="117.57468"
   viewBox="0 0 546.5213 117.57468"
   sodipodi:docname="Tokopedia_Logo.eps"
   xmlns:inkscape="http://www.inkscape.org/namespaces/inkscape"
   xmlns:sodipodi="http://sodipodi.sourceforge.net/DTD/sodipodi-0.dtd"
   xmlns="http://www.w3.org/2000/svg"
   xmlns:svg="http://www.w3.org/2000/svg">
  <defs
     id="defs1" />
  <sodipodi:namedview
     id="namedview1"
     pagecolor="#ffffff"
     bordercolor="#000000"
     borderopacity="0.25"
     inkscape:showpageshadow="2"
     inkscape:pageopacity="0.0"
     inkscape:pagecheckerboard="0"
     inkscape:deskcolor="#d1d1d1" />
  <g
     id="g1"
     inkscape:groupmode="layer"
     inkscape:label="1"
     transform="translate(-59.999996,-275.21335)">
    <path
       id="path27"
       d="m 352.17999,357.87734 c -5.93733,6.024 -13.04267,9.05867 -21.276,9.05867 -6.65733,0 -12.31866,-1.36133 -18.09466,-4.716 v -13.816 c 4.648,3.14933 10.48133,6.15067 16.24266,6.15067 12.008,0 19.16133,-8.26534 19.16133,-19.98 0,-11.72667 -7.4,-20.23867 -19.41066,-20.23867 -5.372,0 -9.71733,1.92934 -13.11733,5.79467 -3.644,4.192 -5.52534,10.18 -5.52534,18.096 v 54.56133 h -0.90533 c -6.61733,0 -11.98533,-5.36667 -11.98533,-11.984 v -44.62267 c 0,-18.93466 11.57866,-34.22266 31.476,-34.22266 9.81866,0 17.79866,3.35733 23.84799,10.10533 5.688,6.30267 8.50934,14.29734 8.50934,23.90933 0,8.55734 -2.972,15.872 -8.92267,21.904 z m 139.56133,-0.45866 c -5.91733,6.34933 -13.52933,9.51733 -22.76533,9.51733 -9.73867,0 -17.68133,-3.36267 -23.72267,-10.10933 -5.68266,-6.38134 -8.50933,-14.37867 -8.50933,-23.90933 0,-16.86667 13.024,-30.95867 30.148,-30.95867 6.612,0 12.34933,1.38933 18.148,4.572 v 13.956 c -4.652,-3.14933 -10.48667,-6.15067 -16.24267,-6.15067 -12.008,0 -19.16133,8.264 -19.16133,19.98133 0,11.56667 7.56667,20.23734 19.40666,20.23734 5.36,0 9.77867,-2.01334 13.31067,-6.05734 3.508,-4.024 5.33333,-9.932 5.33333,-17.87199 v -43.42667 c 0,-6.61733 5.36534,-11.98533 11.98934,-11.98533 h 0.9 v 57.448 c 0,10.11999 -2.92534,18.39999 -8.83467,24.75733 z m 36.39733,-61.59467 c -1.35466,1.51467 -3.29333,2.21334 -5.66266,2.21334 -4.42134,0 -7.58534,-3.26667 -7.58534,-7.65334 0,-4.49466 3.108,-7.528 7.58534,-7.528 4.316,0 7.59333,3.19734 7.59333,7.528 0,2.14134 -0.62533,3.976 -1.93067,5.44 z m 65.49067,34.80134 c 0,-5.08 -1.92133,-9.10134 -5.78933,-12.152 -3.47867,-2.74134 -7.82934,-4.13734 -13.10934,-4.13734 -11.66533,0 -19.152,9.11867 -19.152,20.36133 0,10.828 7.932,19.85734 19.03334,19.85734 7.712,0 11.84266,-4.51067 16.244,-10.12267 v 16.192 c -2.24534,1.67867 -4.824,3.50933 -7.45867,4.584 -2.77733,1.16133 -6.08933,1.728 -9.92267,1.728 -18.552,0 -30.788,-15.368 -30.788,-33.12667 0,-9.11866 2.832,-16.65466 8.53334,-22.53466 6.05333,-6.22667 13.98533,-9.316 23.70133,-9.316 18.42133,0 31.6,10.57467 31.6,29.684 v 34.01866 h -0.90667 c -6.61866,0 -11.98533,-5.36533 -11.98533,-11.984 z m -176.44533,-3.648 c -1.63333,-5.04 -3.672,-7.51734 -8.37333,-10.13867 -11.16534,-6.244 -22.15734,-0.932 -27.27334,10.088 z m -9.83467,39.76799 c -8.23466,1.74667 -16.31333,0.4 -24.19333,-4.00133 -7.68667,-4.29733 -12.84133,-10.68533 -15.41867,-19.11867 -5.216,-17.06399 5.47334,-36.07999 22.66,-40.68799 8.52,-2.28134 16.69334,-1.24667 24.45467,3.09333 12.89467,7.204 17.592,18.352 16.77333,32.71733 l -51.93066,-0.108 c 0.76266,5.86 4.39733,10.44533 9.5,13.296 5.17466,2.89333 9.936,3.584 14.35466,2.21333 4.89867,-1.54 8.87467,-5.53866 12.11067,-9.264 l 10.58533,7.71067 c -4.32,7.724 -10.19866,12.296 -18.896,14.14933 z m 108.68533,-63.51466 h 12.88667 v 62.43066 h -0.90267 c -6.61466,0 -11.984,-5.36533 -11.984,-11.984 v -50.44666"
       style="fill:#44ba3b;fill-opacity:1;fill-rule:nonzero;stroke:none;stroke-width:0.133333"
       inkscape:export-filename="tokopedia.png"
       inkscape:export-xdpi="96"
       inkscape:export-ydpi="96" />
    <path
       id="path28"
       d="m 78.860398,365.66134 c -12.602,0 -18.8604,-8.576 -18.8604,-20.54933 v -45.43333 c 0,-6.61867 5.364534,-11.984 11.9864,-11.984 h 0.9032 v 15.536 h 21.777066 v 12.38133 H 72.889598 v 30.932 c 0,5.26133 2.349467,6.74 7.372933,6.74 h 14.404133 v 12.37733 z m 74.860932,-7.89333 c -6.37333,6.108 -14.02533,9.168 -22.91613,9.168 -8.80734,0 -16.4208,-3.06267 -22.7844,-9.168 -6.39054,-6.12667 -9.578136,-13.924 -9.578136,-23.32133 0,-18.33467 14.005196,-32.488 32.362536,-32.488 8.81213,0 16.44146,3.08533 22.84946,9.22933 6.43067,6.16667 9.64,13.94134 9.64,23.25867 0,9.39733 -3.188,17.19466 -9.57333,23.32133 z m 60.25733,-39.516 c -1.89067,3.17067 -3.35467,5.44667 -4.38667,6.82 -1.13866,1.492 -2.26,2.68667 -3.37066,3.50934 8.95733,2.89733 12.29333,9.10266 12.29333,18.34799 v 18.732 h -0.90667 c -6.62,0 -11.98666,-5.36533 -11.98666,-11.984 v -5.47866 c 0,-5.98267 -2.68,-10.048 -9.02533,-10.048 h -11.70667 v 27.51066 h -0.90267 c -6.62,0 -11.98666,-5.36533 -11.98666,-11.984 v -66.47866 c 0,-6.61733 5.36666,-11.98533 11.98666,-11.98533 h 0.90267 v 50.42933 h 3.80933 c 4.18534,0 6.94,-1.428 8.516,-4.13733 l 10.82933,-18.272 14.688,-0.0133 z m 66.53733,39.516 c -6.368,6.108 -14.02266,9.168 -22.91466,9.168 -8.80534,0 -16.416,-3.06267 -22.78667,-9.168 -6.38667,-6.12667 -9.57067,-13.924 -9.57067,-23.32133 0,-18.33467 13.99867,-32.488 32.35734,-32.488 8.81466,0 16.44533,3.08533 22.852,9.22933 6.428,6.16667 9.64,13.94134 9.64,23.25867 0,9.39733 -3.188,17.19466 -9.57734,23.32133 z m -9.30266,-37.848 c -3.552,-3.72 -8.06934,-5.584 -13.612,-5.584 -11.86134,0 -18.96134,8.64934 -18.96134,20.11067 0,11.30266 7.27067,20.108 18.96134,20.108 11.7,0 18.96,-8.80534 18.96,-20.108 0,-6.00133 -1.79867,-10.816 -5.348,-14.52667 z m -126.8,0 c -3.552,-3.72 -8.064,-5.584 -13.60813,-5.584 -11.86307,0 -18.96094,8.64934 -18.96094,20.11067 0,11.30266 7.26974,20.108 18.96094,20.108 11.6948,0 18.96413,-8.80534 18.96413,-20.108 0,-6.00133 -1.80133,-10.816 -5.356,-14.52667"
       style="fill:#44ba3b;fill-opacity:1;fill-rule:nonzero;stroke:none;stroke-width:0.133333" />
  </g>
</svg>
